<svg width="20" height="27" viewBox="0 0 20 27" fill="none" xmlns="http://www.w3.org/2000/svg">
<path d="M9.85534 27C9.56548 27 8.69592 25.5484 8.69592 25.5484C6.37708 22.3548 4.05824 19.1613 1.7394 15.6774C-2.02872 10.4516 0.000264749 3.19355 6.08722 0.580645C6.95679 0.290323 8.11621 0 8.98577 0C8.98577 0 8.98577 0 9.27563 0C9.85534 0 10.435 0 10.7249 0C11.3046 0 11.8843 0 12.1742 0.290323C15.9423 1.45161 18.551 3.77419 19.4206 7.83871C20.2901 10.7419 19.4206 13.6452 17.6814 15.9677C17.3916 16.5484 17.1017 17.4194 16.522 18C16.2321 18.2903 15.9423 18.2903 15.6524 18.2903C15.3626 18 15.3626 17.7097 15.6524 17.4194C16.2321 16.5484 16.8119 15.9677 17.1017 15.0968C18.2611 13.6452 18.8408 11.6129 18.8408 9.58064C18.8408 5.51613 15.6524 1.74194 11.5945 1.16129C6.95679 0.290323 2.02925 3.48387 1.15968 8.12903C0.579975 10.4516 1.15968 12.7742 2.60896 14.8065C4.9278 18.2903 7.24664 21.4839 9.85534 24.9677C9.85534 24.9677 9.85534 24.9677 10.1452 25.2581C10.1452 25.2581 10.1452 24.9677 10.435 24.9677C11.3046 23.8065 12.1742 22.3548 13.0437 21.1935L13.3336 20.9032C13.6235 20.9032 13.6235 20.9032 13.9133 21.1935C13.9133 21.4839 14.2032 21.4839 13.9133 21.7742C13.3336 22.3548 13.0437 22.6452 12.7539 23.2258C12.1742 24.0968 11.5945 24.9677 11.0148 25.8387C11.0148 25.8387 10.1452 27 9.85534 27Z" fill="#22789D"/>
<path d="M9.85643 5.22559C12.4651 5.22559 14.4941 7.25784 14.4941 9.87075C14.4941 12.4837 12.4651 14.5159 9.85643 14.5159C7.24774 14.5159 5.21875 12.4837 5.21875 9.87075C5.21875 7.25784 7.24774 5.22559 9.85643 5.22559ZM6.37817 9.87075C6.37817 11.903 8.1173 13.6449 10.1463 13.6449C12.1753 13.6449 13.9144 11.903 13.9144 9.87075C13.9144 7.83849 12.1753 6.09655 10.1463 6.09655C7.82745 6.38688 6.37817 7.83849 6.37817 9.87075Z" fill="#22789D"/>
<path d="M14.2031 19.7418C14.2031 19.4515 14.493 19.1611 14.7828 19.1611C15.0727 19.1611 15.3625 19.4515 15.3625 19.7418C15.0727 20.0321 14.7828 20.3224 14.493 20.3224C14.2031 20.3224 14.2031 20.0321 14.2031 19.7418Z" fill="#22789D"/>
</svg>
