<svg width="20" height="27" viewBox="0 0 20 27" fill="none" xmlns="http://www.w3.org/2000/svg">
<g clip-path="url(#clip0_580_1369)">
<path d="M9.85485 27C9.56499 27 8.69543 25.5484 8.69543 25.5484C6.37659 22.3548 4.05775 19.1613 1.73891 15.6774C-2.02921 10.4516 -0.000223532 3.19355 6.08673 0.580645C6.9563 0.290323 8.11572 0 8.98528 0C8.98528 0 8.98528 0 9.27514 0C9.85485 0 10.4346 0 10.7244 0C11.3041 0 11.8838 0 12.1737 0.290323C15.9418 1.45161 18.5505 3.77419 19.4201 7.83871C20.2896 10.7419 19.4201 13.6452 17.6809 15.9677C17.3911 16.5484 17.1012 17.4194 16.5215 18C16.2317 18.2903 15.9418 18.2903 15.652 18.2903C15.3621 18 15.3621 17.7097 15.652 17.4194C16.2317 16.5484 16.8114 15.9677 17.1012 15.0968C18.2606 13.6452 18.8404 11.6129 18.8404 9.58064C18.8404 5.51613 15.652 1.74194 11.594 1.16129C6.9563 0.290323 2.02876 3.48387 1.1592 8.12903C0.579486 10.4516 1.1592 12.7742 2.60847 14.8065C4.92731 18.2903 7.24615 21.4839 9.85485 24.9677C9.85485 24.9677 9.85485 24.9677 10.1447 25.2581C10.1447 25.2581 10.1447 24.9677 10.4346 24.9677C11.3041 23.8065 12.1737 22.3548 13.0433 21.1935L13.3331 20.9032C13.623 20.9032 13.623 20.9032 13.9128 21.1935C13.9128 21.4839 14.2027 21.4839 13.9128 21.7742C13.3331 22.3548 13.0433 22.6452 12.7534 23.2258C12.1737 24.0968 11.594 24.9677 11.0143 25.8387C11.0143 25.8387 10.1447 27 9.85485 27Z" fill="#22789D"/>
<path d="M9.85497 5.22583C12.4637 5.22583 14.4926 7.25809 14.4926 9.87099C14.4926 12.4839 12.4637 14.5162 9.85497 14.5162C7.24627 14.5162 5.21729 12.4839 5.21729 9.87099C5.21729 7.25809 7.24627 5.22583 9.85497 5.22583ZM6.37671 9.87099C6.37671 11.9032 8.11584 13.6452 10.1448 13.6452C12.1738 13.6452 13.9129 11.9032 13.9129 9.87099C13.9129 7.83873 12.1738 6.0968 10.1448 6.0968C7.82598 6.38712 6.37671 7.83873 6.37671 9.87099Z" fill="#22789D"/>
<path d="M14.2026 19.742C14.2026 19.4517 14.4925 19.1614 14.7823 19.1614C15.0722 19.1614 15.3621 19.4517 15.3621 19.742C15.0722 20.0323 14.7823 20.3227 14.4925 20.3227C14.2026 20.3227 14.2026 20.0323 14.2026 19.742Z" fill="#9ED8B3"/>
</g>
<defs>
<clipPath id="clip0_580_1369">
<rect width="20" height="27" fill="white"/>
</clipPath>
</defs>
</svg>
