<svg width="22" height="22" viewBox="0 0 22 22" fill="none" xmlns="http://www.w3.org/2000/svg">
<g clip-path="url(#clip0_580_1374)">
<path d="M10.5968 22C6.03169 22.0097 1.60256 18.605 0.359293 13.7743C-1.04909 8.34218 1.82596 2.72577 7.06127 0.727536C7.41094 0.591734 7.74119 0.572333 8.03258 0.853639C8.2754 1.09614 8.36282 1.42595 8.17827 1.69755C8.03258 1.91096 7.78004 2.09526 7.5275 2.20196C6.06083 2.80337 4.81757 3.69579 3.78799 4.88891C0.514701 8.66228 0.874083 14.5794 4.58446 17.926C8.39196 21.3598 13.9478 21.2725 17.6388 17.7223C21.9222 13.5997 21.2034 6.30514 16.1818 3.11378C15.4242 2.63847 14.5694 2.31837 13.7438 1.94976C13.433 1.81396 13.1513 1.67815 13.0931 1.30955C12.9862 0.717836 13.4913 0.271628 14.1129 0.446231C15.2785 0.776037 16.3663 1.29015 17.3376 2.00796C20.7566 4.53971 22.3787 7.94447 21.9319 12.1834C21.5142 16.0829 19.4454 18.9445 15.9875 20.7875C14.4335 21.612 12.7628 21.9709 10.5968 22Z" fill="#22789D"/>
<path d="M11.782 10.2241C12.899 10.2241 13.9577 10.2241 15.0164 10.2241C15.1719 10.2241 15.3273 10.2338 15.473 10.2629C15.8226 10.3502 16.046 10.6509 16.0363 11.0001C16.0363 11.3493 15.8129 11.6403 15.4535 11.7276C15.3661 11.747 15.2787 11.7664 15.1816 11.7664C13.812 11.7664 12.4425 11.7761 11.073 11.7664C10.5388 11.7664 10.2279 11.456 10.2182 10.9128C10.2085 8.73995 10.2085 6.57681 10.2182 4.40397C10.2182 3.89956 10.5582 3.56006 10.9953 3.56006C11.4421 3.56006 11.7626 3.90926 11.7626 4.44277C11.7723 6.20821 11.7626 7.98334 11.7626 9.74877C11.782 9.89428 11.782 10.0398 11.782 10.2241Z" fill="#22789D"/>
<path d="M11.0242 0C11.4613 0 11.8207 0.358907 11.811 0.785714C11.8013 1.21252 11.4322 1.56173 11.0048 1.54233C10.5872 1.53263 10.2375 1.18342 10.2375 0.776014C10.2278 0.358907 10.5969 0 11.0242 0Z" fill="#22789D"/>
</g>
<defs>
<clipPath id="clip0_580_1374">
<rect width="22" height="22" fill="#22789D"/>
</clipPath>
</defs>
</svg>
