<svg width="27" height="20" viewBox="0 0 27 20" fill="none" xmlns="http://www.w3.org/2000/svg">
<path d="M23.1543 2.64639C23.4851 2.31559 24.1466 1.65399 24.4774 1.32319H24.1466C19.185 1.32319 14.5541 1.32319 9.5925 1.32319H9.26172C8.93095 1.32319 8.93095 0.992396 8.93095 0.661597C8.93095 0.330799 9.26172 0 9.26172 0C9.26172 0 9.26172 0 9.5925 0C14.5541 0 19.5158 0 24.1466 0C25.139 0 26.1313 0.661597 26.4621 1.65399C26.4621 6.94677 26.4621 11.9087 26.4621 17.2015V17.5323C26.1313 18.8555 25.139 19.5171 24.4774 19.5171C16.8696 19.5171 9.5925 19.5171 1.98465 19.5171C0.992327 19.5171 0 18.5247 0 17.2015C0 12.2395 0 7.27757 0 2.31559C0 0.992396 0.992327 0 1.98465 0C2.97698 0 3.63853 0 4.63086 0C4.96164 0 5.29241 0.330799 5.29241 0.661597C5.29241 0.992396 4.96164 1.32319 4.63086 1.32319C3.63853 1.32319 2.97698 1.32319 1.98465 1.32319C1.98465 1.32319 1.98465 1.32319 1.98465 1.65399C5.29241 4.96198 8.26939 8.60076 11.5772 11.9087C12.5695 12.9011 13.8926 12.9011 14.8849 11.9087C17.2003 9.26236 19.5158 6.61597 21.8312 3.96958L23.1543 2.64639ZM8.93095 10.5856C6.61552 12.9011 4.30009 15.5475 1.65388 18.1939C9.26172 18.1939 16.8696 18.1939 24.4774 18.1939C22.162 15.5475 19.8465 12.9011 17.2003 10.5856C17.2003 10.5856 17.2003 10.5856 16.8696 10.9163C16.5388 11.2471 15.8772 11.9087 15.5465 12.5703C14.5541 13.2319 13.5618 13.5627 12.2387 13.2319C11.5772 13.2319 11.2464 12.9011 10.5848 12.2395C10.254 11.5779 9.5925 10.9163 8.93095 10.5856ZM0.992327 17.2015C3.30776 14.5551 5.95396 11.9087 8.26939 9.59316C5.62319 6.94677 3.30776 4.63118 0.992327 1.98479C0.992327 6.94677 0.992327 12.2395 0.992327 17.2015ZM18.1927 9.59316C20.5081 12.2395 22.8235 14.8859 25.4697 17.2015V16.8707C25.4697 11.9087 25.4697 6.94677 25.4697 2.31559V1.98479C22.8235 4.63118 20.5081 6.94677 18.1927 9.59316Z" fill="#22789D"/>
<path d="M6.94622 1.32319C6.61544 1.32319 6.28467 0.992396 6.28467 0.661597C6.28467 0.330799 6.61544 0 6.94622 0C7.277 0 7.60777 0.330799 7.60777 0.661597C7.60777 0.992396 7.277 1.32319 6.94622 1.32319Z" fill="#22789D"/>
</svg>
