<svg width="31" height="32" viewBox="0 0 31 32" fill="none" xmlns="http://www.w3.org/2000/svg">
<path d="M30.8763 3.34462C30.8763 11.4807 30.8763 19.6257 30.8763 27.7618C30.8584 27.8157 30.8317 27.8695 30.8227 27.9324C30.6175 29.1178 30.0019 30.0248 28.958 30.5995C28.5298 30.833 28.0301 30.9408 27.5573 31.1024C25.0055 31.1024 22.4449 31.1024 19.8932 31.1024C19.3757 30.851 19.2151 30.4379 19.224 29.8811C19.2419 26.3339 19.233 22.7957 19.233 19.2486C19.233 18.4763 19.5631 18.135 20.3304 18.135C21.2493 18.135 22.1594 18.135 23.0784 18.135C23.1854 18.135 23.2925 18.126 23.4263 18.117C23.4263 17.3088 23.4263 16.5365 23.4263 15.7553C23.4263 15.6834 23.4085 15.6206 23.3996 15.5218C23.2836 15.5218 23.1765 15.5218 23.0605 15.5218C22.1237 15.5218 21.1869 15.5308 20.259 15.5218C19.5898 15.5128 19.2419 15.1536 19.2419 14.4801C19.2419 13.3216 19.2419 12.1722 19.2419 11.0137C19.2419 10.2684 19.6523 9.85527 20.4017 9.84629C21.294 9.84629 22.1951 9.84629 23.0873 9.84629C23.1944 9.84629 23.3014 9.84629 23.4174 9.84629C23.4174 8.95725 23.4174 8.11311 23.4174 7.23305C23.3014 7.23305 23.2033 7.23305 23.1051 7.23305C22.204 7.23305 21.294 7.23305 20.3928 7.23305C18.2158 7.24203 16.6545 8.82254 16.6456 11.0137C16.6456 12.1722 16.6456 13.3216 16.6456 14.4801C16.6456 15.1536 16.2976 15.5128 15.6284 15.5218C14.6916 15.5308 13.7548 15.5218 12.8269 15.5218C12.7198 15.5218 12.6128 15.5218 12.4879 15.5218C12.4879 16.4108 12.4879 17.2639 12.4879 18.135C12.6217 18.135 12.7288 18.135 12.8358 18.135C13.728 18.135 14.6292 18.135 15.5214 18.135C16.3244 18.135 16.6456 18.4673 16.6456 19.2845C16.6456 22.8137 16.6366 26.3519 16.6545 29.8811C16.6545 30.4469 16.5028 30.8599 15.9853 31.1114C11.7652 31.1114 7.5361 31.1114 3.31595 31.1114C3.27134 31.0934 3.22673 31.0665 3.18212 31.0575C1.30848 30.7342 0.00586031 29.2076 0.00586031 27.2768C-0.00306178 19.4641 -0.00306123 11.6513 0.0147829 3.83854C0.0147829 3.40749 0.0861585 2.96746 0.21999 2.56335C0.746393 0.982833 2.165 0.0039912 3.89589 0.0039912C10.6588 0.0039912 17.4307 0.0039912 24.1936 0.0039912C25.1929 0.0039912 26.1833 -0.004989 27.1825 0.0039912C28.7885 0.0309318 30.1893 1.05467 30.6978 2.58131C30.7603 2.84173 30.8138 3.09318 30.8763 3.34462ZM14.7987 29.2794C14.7987 26.1543 14.7987 23.0831 14.7987 19.9849C14.6648 19.9849 14.5578 19.9849 14.4507 19.9849C13.5317 19.9849 12.6217 19.9849 11.7027 19.9849C10.9622 19.9849 10.6142 19.6257 10.6142 18.8804C10.6142 17.5244 10.6142 16.1683 10.6142 14.8123C10.6142 14.04 10.9622 13.6898 11.7206 13.6898C12.6395 13.6898 13.5496 13.6898 14.4686 13.6898C14.5756 13.6898 14.6827 13.6898 14.8254 13.6898C14.8254 13.5461 14.8254 13.4384 14.8254 13.3306C14.8254 12.4595 14.8076 11.5884 14.8344 10.7174C14.9147 7.81676 17.2344 5.49089 20.1162 5.42803C21.4813 5.40109 22.8553 5.41905 24.2204 5.41905C24.8985 5.41905 25.2554 5.77826 25.2554 6.46973C25.2554 7.85268 25.2554 9.24461 25.2554 10.6276C25.2554 11.337 24.9074 11.6872 24.1936 11.6872C23.2568 11.6872 22.32 11.6872 21.3921 11.6872C21.285 11.6872 21.178 11.6962 21.0798 11.7052C21.0798 12.3877 21.0798 13.0253 21.0798 13.6898C22.1148 13.6898 23.1319 13.6898 24.149 13.6898C24.9074 13.6898 25.2554 14.04 25.2554 14.8034C25.2554 16.1594 25.2554 17.5154 25.2554 18.8714C25.2554 19.6347 24.9074 19.9849 24.149 19.9849C23.23 19.9849 22.32 19.9849 21.401 19.9849C21.294 19.9849 21.1869 19.9939 21.0798 20.0029C21.0798 23.11 21.0798 26.1902 21.0798 29.2704C21.1334 29.2794 21.169 29.2884 21.1958 29.2884C23.1498 29.2884 25.0948 29.3064 27.0487 29.2884C28.2621 29.2794 29.0562 28.4353 29.0562 27.187C29.0562 19.4551 29.0562 11.7142 29.0562 3.98222C29.0562 2.68009 28.2443 1.86289 26.9416 1.86289C19.2686 1.86289 11.5957 1.86289 3.92266 1.86289C2.61111 1.86289 1.7992 2.68009 1.7992 4.00916C1.7992 11.7231 1.7992 19.4371 1.7992 27.1511C1.7992 27.3846 1.81704 27.6181 1.8795 27.8426C2.12039 28.7586 2.87877 29.2974 3.92266 29.2974C7.43796 29.2974 10.9622 29.2974 14.4775 29.2974C14.5845 29.2794 14.6827 29.2794 14.7987 29.2794Z" fill="#22789D"/>
</svg>
