<svg width="31" height="32" viewBox="0 0 31 32" fill="none" xmlns="http://www.w3.org/2000/svg">
<path d="M23.1175 31.11C18.0051 31.11 12.9016 31.11 7.78911 31.11C7.45899 31.0561 7.12887 31.0292 6.80766 30.9573C3.39045 30.176 1.2045 28.0926 0.258745 24.698C0.133834 24.24 0.0892223 23.7461 0 23.2702C0 18.1244 0 12.9877 0 7.84193C0.0178445 7.73417 0.0446112 7.6264 0.0535334 7.51864C0.142756 6.67449 0.330123 5.85728 0.687012 5.09395C2.23948 1.8251 4.82693 0.0739352 8.44043 0.0290335C13.1157 -0.0248486 17.7909 0.0110729 22.4751 0.0200533C23.9384 0.0200533 25.3391 0.343345 26.5972 1.08871C29.4255 2.76804 30.8799 5.28253 30.8977 8.59628C30.9245 13.2391 30.9066 17.8909 30.8977 22.5338C30.8977 23.1175 30.862 23.7192 30.7371 24.2849C29.9787 27.7154 27.8998 29.9156 24.5361 30.8585C24.0722 30.9843 23.5904 31.0292 23.1175 31.11ZM29.0954 15.565C29.0954 13.2481 29.1043 10.9312 29.0865 8.61424C29.0865 8.09338 29.0508 7.55456 28.9348 7.05166C28.2032 3.89956 25.6336 1.85204 22.4216 1.84306C17.7731 1.83408 13.1246 1.83408 8.48504 1.85204C7.9854 1.85204 7.47683 1.88796 6.98611 2.00471C3.85441 2.7411 1.82014 5.32744 1.81121 8.56036C1.81121 13.2301 1.81121 17.8999 1.82014 22.5787C1.82014 23.0726 1.85582 23.5755 1.96289 24.0515C2.64098 27.1586 5.2552 29.278 8.42259 29.287C13.1068 29.296 17.7999 29.287 22.484 29.287C23.4298 29.287 24.3488 29.1253 25.2053 28.7033C27.7392 27.464 29.0508 25.4075 29.0865 22.5697C29.1133 20.2438 29.0954 17.8999 29.0954 15.565Z" fill="#22789D"/>
<path d="M15.4524 24.0701C10.8129 24.0791 7.00308 20.2535 6.99416 15.5747C6.98523 10.9049 10.7861 7.07033 15.4346 7.07033C20.0742 7.06135 23.8839 10.887 23.8929 15.5657C23.9107 20.2265 20.1009 24.0611 15.4524 24.0701ZM22.0906 15.5927C22.1173 11.9287 19.1284 8.90232 15.4703 8.88436C11.8389 8.8664 8.84998 11.8389 8.81429 15.5208C8.7786 19.1758 11.7497 22.2112 15.4167 22.2381C19.057 22.274 22.0638 19.2746 22.0906 15.5927Z" fill="#22789D"/>
<path d="M24.1076 9.06249C22.7514 9.06249 21.6094 7.92199 21.6094 6.55698C21.6094 5.19196 22.7425 4.04248 24.1076 4.04248C25.4638 4.04248 26.6058 5.19196 26.6058 6.55698C26.6058 7.91301 25.4638 9.06249 24.1076 9.06249ZM24.1165 5.87447C23.7596 5.86549 23.4384 6.17082 23.4206 6.53902C23.4027 6.90721 23.7329 7.24846 24.0987 7.24846C24.4556 7.24846 24.7768 6.93415 24.7768 6.56596C24.7857 6.19776 24.4734 5.88345 24.1165 5.87447Z" fill="#22789D"/>
</svg>
