<svg width="54" height="54" viewBox="0 0 54 54" fill="none" xmlns="http://www.w3.org/2000/svg">
<circle cx="27" cy="27" r="27" fill="#00594E"/>
<path d="M34.1175 42.11C29.0051 42.11 23.9016 42.11 18.7891 42.11C18.459 42.0561 18.1289 42.0292 17.8077 41.9573C14.3904 41.176 12.2045 39.0926 11.2587 35.698C11.1338 35.24 11.0892 34.7461 11 34.2702C11 29.1244 11 23.9877 11 18.8419C11.0178 18.7342 11.0446 18.6264 11.0535 18.5186C11.1428 17.6745 11.3301 16.8573 11.687 16.0939C13.2395 12.8251 15.8269 11.0739 19.4404 11.029C24.1157 10.9752 28.7909 11.0111 33.4751 11.0201C34.9384 11.0201 36.3391 11.3433 37.5972 12.0887C40.4255 13.768 41.8799 16.2825 41.8977 19.5963C41.9245 24.2391 41.9066 28.8909 41.8977 33.5338C41.8977 34.1175 41.862 34.7192 41.7371 35.2849C40.9787 38.7154 38.8998 40.9156 35.5361 41.8585C35.0722 41.9843 34.5904 42.0292 34.1175 42.11ZM40.0954 26.565C40.0954 24.2481 40.1043 21.9312 40.0865 19.6142C40.0865 19.0934 40.0508 18.5546 39.9348 18.0517C39.2032 14.8996 36.6336 12.852 33.4216 12.8431C28.7731 12.8341 24.1246 12.8341 19.485 12.852C18.9854 12.852 18.4768 12.888 17.9861 13.0047C14.8544 13.7411 12.8201 16.3274 12.8112 19.5604C12.8112 24.2301 12.8112 28.8999 12.8201 33.5787C12.8201 34.0726 12.8558 34.5755 12.9629 35.0515C13.641 38.1586 16.2552 40.278 19.4226 40.287C24.1068 40.296 28.7999 40.287 33.484 40.287C34.4298 40.287 35.3488 40.1253 36.2053 39.7033C38.7392 38.464 40.0508 36.4075 40.0865 33.5697C40.1133 31.2438 40.0954 28.8999 40.0954 26.565Z" fill="#22789D"/>
<path d="M26.4529 35.0704C21.8134 35.0793 18.0036 31.2537 17.9946 26.575C17.9857 21.9052 21.7866 18.0706 26.4351 18.0706C31.0746 18.0616 34.8844 21.8872 34.8934 26.566C34.9112 31.2268 31.1014 35.0614 26.4529 35.0704ZM33.0911 26.5929C33.1178 22.9289 30.1289 19.9026 26.4708 19.8846C22.8394 19.8666 19.8505 22.8391 19.8148 26.5211C19.7791 30.1761 22.7502 33.2114 26.4172 33.2384C30.0575 33.2743 33.0643 30.2749 33.0911 26.5929Z" fill="#22789D"/>
<path d="M35.1081 20.0625C33.7519 20.0625 32.6099 18.922 32.6099 17.557C32.6099 16.192 33.743 15.0425 35.1081 15.0425C36.4643 15.0425 37.6063 16.192 37.6063 17.557C37.6063 18.913 36.4643 20.0625 35.1081 20.0625ZM35.117 16.8745C34.7601 16.8655 34.4389 17.1708 34.4211 17.539C34.4032 17.9072 34.7334 18.2485 35.0992 18.2485C35.4561 18.2485 35.7773 17.9342 35.7773 17.566C35.7862 17.1978 35.4739 16.8835 35.117 16.8745Z" fill="#22789D"/>
</svg>
