<svg width="32" height="32" viewBox="0 0 32 32" fill="none" xmlns="http://www.w3.org/2000/svg">
<path d="M17.7772 10.9093C18.1812 10.9093 18.1812 10.9093 17.7772 10.9093C23.0298 7.27292 29.8985 10.1012 31.1106 16.1619C31.1106 16.5659 31.1106 16.97 31.1106 17.374C31.1106 21.4145 31.1106 25.4549 31.1106 29.4953C31.1106 30.3034 30.7066 30.7075 29.8985 30.7075C27.8783 30.7075 26.2621 30.7075 24.2419 30.7075C23.4338 30.7075 23.0298 30.3034 23.0298 29.4953C23.0298 25.8589 23.0298 22.2225 23.0298 18.5862C23.0298 17.374 22.2217 16.5659 21.4136 16.1619C19.7974 15.7578 18.1812 16.97 18.1812 18.9902C18.1812 22.6266 18.1812 26.263 18.1812 29.8994V30.3034C18.1812 30.7075 17.7772 31.1115 17.3731 31.1115C15.3529 31.1115 13.3327 31.1115 11.3125 31.1115C10.9084 31.1115 10.5044 30.7075 10.5044 30.3034C10.5044 23.8387 10.5044 17.374 10.5044 10.9093C10.5044 10.5053 10.9084 10.1012 11.3125 10.1012C13.3327 10.1012 15.3529 10.1012 16.9691 10.1012C17.3731 10.1012 17.7772 10.5053 17.7772 10.9093ZM29.4945 29.4953C29.4945 29.0913 29.4945 29.0913 29.4945 29.4953C29.4945 25.4549 29.4945 21.4145 29.4945 17.7781C29.4945 17.374 29.4945 16.97 29.4945 16.5659C28.6864 13.3336 26.2621 10.9093 23.0298 10.9093C21.0095 10.9093 18.9893 11.7174 17.7772 13.3336C17.7772 13.7376 17.3731 14.1417 16.9691 14.1417C16.5651 13.7376 16.161 13.3336 16.161 12.9295C16.161 12.5255 16.161 12.1214 16.161 11.3134C14.5448 11.3134 13.3327 11.3134 12.1206 11.3134C12.1206 17.374 12.1206 23.4347 12.1206 29.0913C13.7367 29.0913 14.9489 29.0913 16.5651 29.0913V28.6873C16.5651 25.4549 16.5651 22.2225 16.5651 19.3942C16.5651 18.9902 16.5651 18.5862 16.5651 18.1821C16.9691 16.1619 18.9893 14.5457 21.0095 14.5457C23.4338 14.9498 25.05 16.5659 25.05 18.9902C25.05 22.2225 25.05 25.4549 25.05 28.6873V29.0913C26.6662 29.4953 27.8783 29.4953 29.4945 29.4953Z" fill="#22789D"/>
<path d="M8.48518 20.2012C8.48518 23.4335 8.48518 26.6659 8.48518 29.8982C8.48518 30.7063 8.08114 31.1104 7.27305 31.1104C5.25283 31.1104 3.63665 31.1104 1.61643 31.1104C0.808341 31.1104 0.404297 30.7063 0.404297 29.8982C0.404297 23.4335 0.404297 16.9688 0.404297 10.5041C0.404297 9.69604 0.808341 9.29199 1.61643 9.29199C3.63665 9.29199 5.65687 9.29199 7.27305 9.29199C8.08114 9.29199 8.48518 9.69604 8.48518 10.5041C8.48518 13.7365 8.48518 16.9688 8.48518 20.2012ZM6.46496 29.4942C6.46496 23.4335 6.46496 17.3729 6.46496 11.7163C4.84878 11.7163 3.63665 11.7163 2.02047 11.7163C2.02047 17.7769 2.02047 23.8376 2.02047 29.4942C3.63665 29.4942 5.25283 29.4942 6.46496 29.4942Z" fill="#22789D"/>
<path d="M8.88897 4.44448C8.88897 6.86875 6.86875 8.88897 4.44448 8.88897C2.02022 8.88897 0 6.86875 0 4.44448C0 2.02022 2.02022 0 4.44448 0C6.86875 0 8.88897 2.02022 8.88897 4.44448ZM1.61618 4.44448C1.61618 6.06066 2.82831 7.27279 4.44448 7.27279C6.06066 7.27279 7.27279 6.06066 7.27279 4.44448C7.27279 2.82831 6.06066 1.61618 4.44448 1.61618C2.82831 1.61618 1.61618 2.82831 1.61618 4.44448Z" fill="#22789D"/>
</svg>
