<svg width="26" height="26" viewBox="0 0 26 26" fill="none" xmlns="http://www.w3.org/2000/svg">
<path d="M0 6.42909C0 4.54741 0.634972 2.97934 1.90492 1.72488C2.2224 1.09765 2.85737 0.784036 3.17486 0.470421C3.80983 -0.156807 4.76229 -0.156807 5.71475 0.470421C7.30218 2.03849 8.88961 3.60656 10.477 5.17463C11.112 5.80186 11.112 6.74271 10.477 7.68355C9.84206 7.99716 9.20709 8.62439 8.57212 9.25162C7.93715 9.87885 7.93715 10.1925 8.25463 10.8197C8.57212 11.1333 8.88961 11.4469 9.20709 12.0741C9.52458 12.3878 9.20709 12.7014 9.20709 13.015C8.88961 13.3286 8.57212 13.015 8.25463 12.7014C7.93715 12.3878 7.61966 11.7605 7.30218 11.4469C6.6672 10.5061 6.66721 9.25162 7.61966 8.62439C8.25463 7.99716 8.88961 7.36993 9.52458 6.74271C9.84206 6.42909 9.84206 6.11548 9.52458 5.80186C7.93715 4.23379 6.34972 2.66572 4.76229 1.41126C4.4448 1.09765 4.12732 1.09765 3.80983 1.41126C3.49235 1.72488 3.17486 2.03849 2.85737 2.35211C0.952458 4.23379 0.634972 6.74271 1.90492 8.93801C3.80983 12.7014 6.34972 15.8375 9.20709 18.66C11.4295 20.5417 13.9694 22.4234 16.5093 23.6779C18.7317 24.6187 21.2716 24.3051 22.859 22.737C23.494 22.4234 24.1289 21.7962 24.4464 21.4826C24.7639 21.169 24.7639 20.8553 24.4464 20.5417C22.859 18.9737 21.2716 17.4056 19.6841 15.8375C19.6841 15.8375 19.3666 15.8375 19.0492 16.1511C18.4142 16.7784 17.7792 17.4056 17.1442 18.0328C16.1918 18.66 15.2393 18.9737 13.9694 18.0328C13.3344 17.7192 12.6994 17.092 12.0645 16.7784C11.747 16.4647 11.747 16.1511 11.747 16.1511C11.747 15.8375 12.0645 15.8375 12.382 15.8375C12.382 15.8375 12.6994 15.8375 12.6994 16.1511C13.3344 16.4647 13.9694 17.092 14.6044 17.4056C15.2393 17.7192 15.8743 17.7192 16.1918 17.4056C16.8268 16.7784 17.4617 16.1511 18.0967 15.5239C19.0492 14.5831 20.0016 14.5831 20.6366 15.5239C22.224 16.7784 23.8114 18.3464 25.3989 19.6009C26.0338 20.2281 26.3513 21.4826 25.3989 22.1098C24.4464 22.737 24.1289 23.6779 23.1765 23.9915C20.9541 25.5596 18.4142 25.8732 16.1918 24.6187C11.112 22.4234 6.98469 18.9737 3.80983 14.5831C2.53989 13.015 1.58743 11.4469 0.634972 9.56523C0.317486 8.62439 0 7.36993 0 6.42909Z" fill="#22789D"/>
<path d="M10.4768 13.9553C10.7943 13.9553 11.1117 14.2689 11.1117 14.5826C11.1117 14.8962 10.7943 15.2098 10.4768 15.2098C10.1593 15.2098 9.8418 14.8962 9.8418 14.5826C9.8418 14.2689 10.1593 13.9553 10.4768 13.9553Z" fill="#22789D"/>
</svg>
